HIERARCHY
ROOT Hips
{
	OFFSET 0.00000 0.00000 0.00000
	CHANNELS 6 Xposition Yposition Zposition Yrotation Zrotation Xrotation 
	JOINT Lumbar
	{
		OFFSET 0 0 0
		CHANNELS 3 Zrotation Xrotation Yrotation
		JOINT Neck
		{
			OFFSET 0.00 0.2701 0.00
			CHANNELS 3 Zrotation Xrotation Yrotation
			End Site
			{
				OFFSET 0.00 0.1379 0.00
			}
		}
		JOINT RightShoulder
		{
			OFFSET 0.0119 0.2289 0.1181
			CHANNELS 3 Zrotation Xrotation Yrotation
			JOINT RightElbow
			{
				OFFSET 0.00 -0.1475 0.00
				CHANNELS 2 Zrotation Yrotation
				JOINT RightWrist
				{
					OFFSET 0.00 -0.1605 0.00
					CHANNELS 2 Zrotation Xrotation
					End Site
					{
						OFFSET 0.0040 -0.1068 0.0006
					}
				}
			}
		}
		JOINT LeftShoulder
		{
			OFFSET 0.0119 0.2289 -0.1181
			CHANNELS 3 Zrotation Xrotation Yrotation
			JOINT LeftElbow
			{
				OFFSET 0.00 -0.1475 0.00
				CHANNELS 2 Zrotation Yrotation
				JOINT LeftWrist
				{
					OFFSET 0.00 -0.1605 0.00
					CHANNELS 2 Zrotation Xrotation
					End Site
					{
						OFFSET 0.0040 -0.1068 -0.0006
					}
				}
			}
		}
	}
	JOINT RightHip
	{
		OFFSET 0.0316 -0.0424 0.0458
		CHANNELS 3 Zrotation Xrotation Yrotation
		JOINT RightKnee
		{
			OFFSET 0.00 -0.2438 0.00
			CHANNELS 1 Zrotation
			JOINT RightAnkle
			{
				OFFSET 0.00 -0.2449 0.00
				CHANNELS 3 Zrotation Xrotation Yrotation
				End Site
				{
					OFFSET 0.1237 -0.0542 0.0051
				}
			}
		}
	}
	JOINT LeftHip
	{
		OFFSET 0.0316 -0.0424 -0.0458
		CHANNELS 3 Zrotation Xrotation Yrotation
		JOINT LeftKnee
		{
			OFFSET 0.00 -0.2438 0.00
			CHANNELS 1 Zrotation
			JOINT LeftAnkle
			{
				OFFSET 0.00 -0.2449 0.00
				CHANNELS 3 Zrotation Xrotation Yrotation
				End Site
				{
					OFFSET 0.1237 -0.0542 -0.0051
				}
			}
		}
	}
}
MOTION
Frames: 25
Frame Time: 0.02
-0.63271 -0.00541 0.04987 -135.00474 -24.04121 -1.92647 32.00675 1.27481 -7.90152 -9.05546 8.19454 -0.83079 10.2882 -22.08489 -25.08334 132.65049 67.35869 -18.45847 -0.78912 1.05248 18.29435 30.57266 127.93844 -58.62446 -11.58492 -4.00149 17.65362 7.9535 -7.90606 -7.72927 -7.20431 -4.75807 -3.19557 37.73239 15.23091 -5.43313 -36.84135 -8.95938 3.35755 2.48887
-0.62966 -0.00535 0.04695 -134.76976 -24.60802 -1.89533 31.35599 1.45875 -8.00933 -9.27536 8.39126 -0.83079 9.42925 -21.44515 -27.094 134.37388 67.64633 -18.87702 -2.43311 0.4074 17.51522 32.28063 130.33243 -58.10607 -12.06589 -3.64969 19.24006 7.70247 -9.0192 -8.82787 -7.11245 -4.63569 -3.12193 38.93051 15.4222 -4.87344 -37.11492 -8.89597 3.28554 2.44472
-0.62623 -0.00524 0.04423 -134.55138 -25.55071 -1.79569 31.10361 1.54515 -8.17693 -9.46461 8.60778 -0.83079 9.03888 -21.02784 -29.07189 134.79397 68.76468 -18.47988 -4.58492 0.24217 17.24435 33.89143 131.91272 -58.94193 -11.8702 -2.9202 21.42275 7.27247 -10.41631 -10.29515 -6.99032 -4.48644 -3.03159 40.35825 15.55935 -4.07643 -37.15422 -8.76486 3.2327 2.40713
-0.62297 -0.00514 0.04146 -134.33145 -26.31555 -1.72889 30.67397 1.67776 -8.31024 -9.6531 8.81116 -0.83079 8.47385 -20.5526 -31.03452 135.80404 69.4446 -18.48733 -6.37527 -0.11086 16.78421 35.50687 133.82167 -59.10863 -12.00203 -2.41763 23.3099 6.92665 -11.64217 -11.56672 -6.88593 -4.35333 -2.95127 41.65482 15.72214 -3.39254 -37.29746 -8.66768 3.16834 2.36535
-0.6197 -0.00506 0.03848 -134.08568 -27.10712 -1.65664 30.21525 1.80697 -8.47188 -9.89728 9.03399 -0.83079 7.76888 -19.89545 -33.12359 136.82114 70.35505 -18.37385 -8.70882 -0.56641 16.14962 37.27996 135.89635 -59.43867 -12.06936 -1.69669 25.29546 6.56926 -13.04175 -12.94795 -6.76562 -4.20372 -2.86077 43.06316 15.88168 -2.68582 -37.44889 -8.55874 3.11483 2.32829
-0.61637 -0.00494 0.03601 -133.89858 -27.93138 -1.57896 29.91756 1.918 -8.58958 -10.02087 9.21983 -0.83079 7.45619 -19.66357 -34.93824 137.50868 70.99574 -18.30461 -10.04621 -0.70673 15.99393 38.70337 137.42785 -59.78885 -12.09593 -1.32619 27.21634 6.19311 -14.14828 -14.19105 -6.67091 -4.08208 -2.78749 44.28838 16.03317 -1.97431 -37.52573 -8.45766 3.04442 2.28351
-0.61297 -0.00468 0.03475 -133.86096 -28.77811 -1.50104 29.95793 2.00671 -8.56936 -9.81597 9.30365 -0.83079 8.13957 -20.6303 -36.04637 137.67832 70.65615 -18.62189 -8.36646 -0.06034 17.09264 39.20591 137.74823 -59.6824 -12.25837 -2.12849 28.85284 5.81093 -14.38017 -14.97266 -6.65446 -4.04425 -2.76594 45.01644 16.1949 -1.25916 -37.48646 -8.39411 2.91308 2.21059
-0.60954 -0.00437 0.03401 -133.88334 -29.64034 -1.42016 30.15046 2.07898 -8.50382 -9.49248 9.34822 -0.83079 9.19418 -22.00369 -36.87145 137.54522 70.02814 -18.99629 -5.69192 0.87834 18.6456 39.35728 137.53187 -59.58699 -12.38607 -3.27633 30.39658 5.41554 -14.30727 -15.60213 -6.66464 -4.03554 -2.76229 45.53992 16.34709 -0.55482 -37.37337 -8.34067 2.76573 2.13055
-0.60614 -0.00408 0.0331 -133.88381 -30.48123 -1.34159 30.28058 2.15574 -8.46004 -9.2257 9.40755 -0.83079 10.05737 -23.14019 -37.79927 137.50898 69.55354 -19.30126 -3.56618 1.65661 19.95436 39.65771 137.50966 -59.6156 -12.47336 -4.18946 31.95894 5.025 -14.37192 -16.29605 -6.66237 -4.01348 -2.75035 46.11756 16.49096 0.12188 -37.27552 -8.28292 2.63222 2.05731
-0.60263 -0.00381 0.0319 -133.86239 -31.39825 -1.25637 30.39431 2.24245 -8.41182 -8.94458 9.48143 -0.83079 11.03105 -24.50392 -38.83777 137.61466 69.00334 -19.76641 -1.05255 2.5641 21.44087 40.00028 137.68455 -59.15794 -12.77386 -5.41113 33.64504 4.63351 -14.45045 -17.02236 -6.66055 -3.99086 -2.73842 46.87271 16.68569 0.93984 -37.25309 -8.22181 2.47234 1.96966
-0.59936 -0.0035 0.03145 -133.90044 -32.15205 -1.18544 30.57518 2.30492 -8.36332 -8.66716 9.5144 -0.83079 11.85922 -25.4884 -39.57571 137.35022 68.54373 -19.91603 0.8993 3.27098 22.65758 40.17138 137.31246 -59.68304 -12.63165 -6.08502 35.03895 4.24268 -14.42403 -17.64043 -6.66448 -3.97682 -2.73103 47.19932 16.77376 1.46344 -37.0511 -8.17075 2.3625 1.90976
-0.59672 -0.00309 0.03285 -134.08891 -32.47883 -1.15281 30.88541 2.31187 -8.3078 -8.41655 9.45266 -0.83079 12.17124 -25.32511 -39.58063 136.31127 68.29356 -19.23612 1.03121 3.30432 23.02513 39.96812 135.73532 -63.04505 -11.27093 -5.09471 35.68606 3.86195 -14.17977 -17.99465 -6.67843 -3.97823 -2.73104 46.45411 16.56143 1.12738 -36.44191 -8.14712 2.40217 1.93247
-0.59433 -0.00266 0.035 -134.3346 -32.63351 -1.13528 31.2593 2.29398 -8.25653 -8.17676 9.34942 -0.83079 12.32751 -24.76724 -39.28786 134.88408 68.15932 -18.23125 0.57082 3.13351 23.10306 39.60158 133.5995 -67.36486 -9.47053 -3.55522 36.03234 3.4822 -13.83889 -18.24411 -6.69743 -3.9877 -2.73531 45.27262 16.24312 0.50271 -35.6432 -8.1332 2.49151 1.98267
-0.59184 -0.00225 0.03688 -134.55385 -32.84747 -1.11254 31.61467 2.28322 -8.2144 -7.93969 9.25939 -0.83079 12.56608 -24.38699 -39.1134 133.528 68.04319 -17.34155 0.40067 3.08352 23.30457 39.30276 131.6074 -71.15775 -7.87727 -2.31351 36.48892 3.09975 -13.5433 -18.54074 -6.71366 -3.9942 -2.73815 44.2487 15.97995 0.04247 -34.88541 -8.1137 2.55288 2.01728
-0.58928 -0.00181 0.0385 -134.77834 -33.1434 -1.08299 31.93248 2.28984 -8.12393 -7.66412 9.19178 -0.83079 12.76292 -24.01984 -39.00069 132.60683 67.62621 -16.58691 0.17559 2.92017 23.55022 39.0226 130.05448 -75.34147 -6.2497 -0.88172 37.0543 2.72671 -13.23388 -18.8328 -6.7322 -3.99837 -2.7392 43.38734 15.6901 -0.55513 -34.31321 -8.09934 2.63554 2.06414
-0.58691 -0.00142 0.04083 -135.00307 -33.22589 -1.07085 32.34056 2.25402 -8.1358 -7.47549 9.06823 -0.83079 13.01278 -23.53692 -38.6924 130.6897 67.85753 -15.47777 -0.08817 2.94743 23.63669 38.66485 127.46966 -78.9349 -4.59187 0.29106 37.32256 2.33392 -12.93117 -19.11311 -6.74754 -4.00945 -2.74506 42.08927 15.42684 -0.93922 -33.31366 -8.0766 2.68708 2.09283
-0.58509 -0.00114 0.04492 -135.22904 -32.77495 -1.10692 32.98932 2.11254 -8.42805 -7.50194 8.80006 -0.83079 13.37433 -22.73721 -37.91699 126.14749 69.93273 -13.43112 -0.32219 3.48893 23.28604 38.17348 122.11194 -80.69049 -2.94193 0.59774 36.84742 1.89119 -12.69924 -19.37367 -6.74622 -4.03288 -2.76033 39.67144 15.29732 -0.62715 -31.15709 -8.02693 2.62981 2.05851
-0.58343 -0.00091 0.0497 -135.45066 -32.11328 -1.15934 33.72411 1.92865 -8.82298 -7.61994 8.47764 -0.83079 13.80484 -21.84947 -36.95597 120.61994 72.64208 -11.04668 -0.57822 4.23831 22.79492 37.604 115.75566 -81.81362 -1.28078 0.6294 36.08519 1.42754 -12.47448 -19.63007 -6.74248 -4.06353 -2.78062 36.83672 15.19219 -0.0966 -28.58464 -7.9686 2.54144 2.00605
-0.58165 -0.00064 0.05418 -135.6639 -31.53779 -1.20173 34.41474 1.76022 -9.17264 -7.71173 8.17999 -0.83079 14.25142 -21.06202 -36.08191 115.51584 75.00909 -8.84061 -0.82352 4.93299 22.41155 37.04516 109.89038 -83.209 0.36546 0.79979 35.45028 0.97061 -12.22799 -19.89637 -6.74423 -4.09409 -2.80051 34.20392 15.05295 0.3099 -26.21457 -7.91527 2.47458 1.96609
-0.5801 -0.00042 0.05862 -135.92124 -30.9933 -1.25542 35.1311 1.60549 -9.51898 -7.74024 7.8789 -0.83079 14.49856 -20.00875 -35.18821 110.46983 77.60997 -6.5148 -1.09146 5.45711 21.8359 36.58463 103.82099 -84.70272 2.07188 0.93195 34.81079 0.52621 -12.05208 -20.1213 -6.72817 -4.11227 -2.81306 31.49201 15.00579 0.80947 -23.7694 -7.85827 2.37889 1.90953
-0.5781 -0.00013 0.0633 -136.08702 -30.34082 -1.2895 35.81092 1.41436 -9.89351 -7.92041 7.57449 -0.83079 15.17209 -19.49057 -34.2928 105.11274 79.87111 -4.36676 -1.31045 6.38309 21.62745 35.90383 97.98107 -85.82787 3.64566 1.07023 34.12579 0.04978 -11.73699 -20.43755 -6.74787 -4.15688 -2.84147 28.86556 14.77579 1.17261 -21.39937 -7.80612 2.33448 1.88239
-0.57493 0.00043 0.06859 -135.98268 -29.40568 -1.26348 36.38913 1.11727 -10.34722 -8.51054 7.25855 -0.83079 17.07173 -20.49701 -33.46193 98.80494 81.05311 -2.75671 -1.38245 8.41747 22.50155 34.62743 92.72604 -86.09396 4.8842 1.29969 33.31057 -0.50037 -10.99355 -20.97 -6.87271 -4.28108 -2.91742 26.46351 14.02135 1.09391 -19.21458 -7.77485 2.44525 1.94481
-0.57127 0.00105 0.07407 -135.78948 -28.37743 -1.21757 36.92292 0.78823 -10.82084 -9.24644 6.94436 -0.83079 19.38785 -22.04222 -32.6336 92.28047 81.86789 -1.34564 -1.40269 10.84257 23.74648 33.13403 87.79075 -86.00545 5.98026 1.54067 32.4767 -1.08286 -10.11702 -21.60394 -7.03248 -4.43012 -3.00827 24.18782 13.08598 0.87563 -17.14629 -7.74778 2.60711 2.03649
-0.56775 0.0016 0.0794 -135.64867 -27.41538 -1.18181 37.46409 0.48416 -11.26799 -9.90805 6.63972 -0.83079 21.46946 -23.32591 -31.789 86.0777 82.84126 0.13179 -1.44805 13.05509 24.79882 31.7452 82.90835 -86.07175 7.11732 1.76918 31.69971 -1.65809 -9.33116 -22.2137 -7.17244 -4.56213 -3.08896 21.92776 12.24181 0.72829 -15.10385 -7.71513 2.74169 2.11225
-0.5646 0.00233 0.08508 -135.45697 -26.34205 -1.14143 38.06469 0.13394 -11.7922 -10.61136 6.28912 -0.83079 23.73928 -24.67644 -30.99831 78.90507 83.87281 1.72347 -1.48806 15.41548 25.94184 30.32876 77.16745 -86.14306 8.35569 2.01935 30.70095 -2.20663 -8.42289 -22.72247 -7.32902 -4.71824 -3.18389 19.33403 11.35702 0.54999 -12.70417 -7.6974 2.89328 2.19894
